# xmcd
#
# Track frame offsets:
#	150
#	13534
#	31825
#	43486
#	54892
#	66244
#	80465
#	96251
#	108849
#	121738
#	136186
#	154430
#	167404
#	178594
#	188741
#	204395
#	221974
#
# Disc length: 3173 seconds
# Revision: 0
# Processed by: cddbd v1.5.2PL0 Copyright (c) Steve Scherf et al.
# Submitted via: dBpowerAMP V12.0
#
DISCID=e40c6311
DTITLE=Smoky Babe - Way Back in The Country Blues
DYEAR=2014
DGENRE=Blues
TTITLE0=Boss Man Blues
TTITLE1=Backyard Boogie 
TTITLE2=Bad Luck And Trouble
TTITLE3=Diggin' ny Potatoes
TTITLE4=Whats Wrong With You
TTITLE5=Chicago Bound
TTITLE6=If I Had Listened
TTITLE7=On mr. Walter Farm
TTITLE8=I'm Going Home on The Mornin' Train
TTITLE9=I'm Goin' Away Baby
TTITLE10=Way Back in The Country Blues
TTITLE11=Shake, Shake Mattie
TTITLE12=I'm Wild About You Black Gal
TTITLE13=Arkansas Blues 
TTITLE14=Terraplane Blues
TTITLE15=Goin' Home Blues
TTITLE16=Boogie Gal
EXTD=
EXTT0=
EXTT1=
EXTT2=
EXTT3=
EXTT4=
EXTT5=
EXTT6=
EXTT7=
EXTT8=
EXTT9=
EXTT10=
EXTT11=
EXTT12=
EXTT13=
EXTT14=
EXTT15=
EXTT16=
PLAYORDER=
